<svg xmlns="http://www.w3.org/2000/svg" xmlns:xlink="http://www.w3.org/1999/xlink" width="727" height="738" viewBox="0 0 727 738">
  <defs>
    <filter id="Rectangle_1" x="0" y="0" width="727" height="738" filterUnits="userSpaceOnUse">
      <feOffset dy="3" input="SourceAlpha"/>
      <feGaussianBlur stdDeviation="3" result="blur"/>
      <feFlood flood-opacity="0.102"/>
      <feComposite operator="in" in2="blur"/>
      <feComposite in="SourceGraphic"/>
    </filter>
  </defs>
  <g id="Group_11819" data-name="Group 11819" transform="translate(9 6)">
    <g transform="matrix(1, 0, 0, 1, -9, -6)" filter="url(#Rectangle_1)">
      <rect id="Rectangle_1-2" data-name="Rectangle 1" width="709" height="720" transform="translate(9 6)" fill="#f5f5f5"/>
    </g>
    <g id="application_to_peer" data-name="application to peer" transform="translate(62.522 75.341)">
      <circle id="Ellipse_166" data-name="Ellipse 166" cx="4.098" cy="4.098" r="4.098" transform="translate(538.976 467.922)" fill="#4e69ff"/>
      <circle id="Ellipse_167" data-name="Ellipse 167" cx="4.098" cy="4.098" r="4.098" transform="translate(517.613 518.623)" fill="#9fbfff" opacity="0.47"/>
      <circle id="Ellipse_168" data-name="Ellipse 168" cx="3.185" cy="3.185" r="3.185" transform="translate(32.68 94.09)" fill="#9fbfff"/>
      <path id="Path_4594" data-name="Path 4594" d="M246.242,52.569a5.681,5.681,0,1,1-5.681-5.681A5.68,5.68,0,0,1,246.242,52.569Z" transform="translate(34.985 4.032)" fill="#4e69ff"/>
      <path id="Path_4595" data-name="Path 4595" d="M41.152,124.2a5.354,5.354,0,1,1-5.354-5.354A5.353,5.353,0,0,1,41.152,124.2Z" transform="translate(0.066 16.323)" fill="#4e69ff"/>
      <circle id="Ellipse_169" data-name="Ellipse 169" cx="2.01" cy="2.01" r="2.01" transform="translate(74.751 88.372)" fill="#1b1b25"/>
      <path id="Path_4596" data-name="Path 4596" d="M469.938,96.561a3.186,3.186,0,1,1,4.415-.89A3.185,3.185,0,0,1,469.938,96.561Z" transform="translate(74.89 11.519)" fill="#9fbfff"/>
      <path id="Path_4597" data-name="Path 4597" d="M105.8,452.978a3.185,3.185,0,1,1,4.415-.889A3.187,3.187,0,0,1,105.8,452.978Z" transform="translate(12.694 72.396)" fill="#9fbfff"/>
      <circle id="Ellipse_170" data-name="Ellipse 170" cx="5.354" cy="5.354" r="5.354" transform="translate(473.956 77.302) rotate(-11.493)" fill="#4e69ff"/>
      <path id="Path_4598" data-name="Path 4598" d="M430.1,127.758a2.01,2.01,0,1,1,2.788-.561A2.01,2.01,0,0,1,430.1,127.758Z" transform="translate(68.175 17.216)" fill="#1b1b25"/>
      <path id="Path_4599" data-name="Path 4599" d="M84.82,39.283C87.013,28.074,99.942,21.17,113.7,23.862S146.385,39.691,144.192,50.9s-23.863,7.595-36.967,10.652C88.949,65.816,82.627,50.489,84.82,39.283Z" transform="translate(9.283)" fill="#9fbfff" opacity="0.41"/>
      <g id="Group_11744" data-name="Group 11744" transform="translate(30.056 42.619)">
        <g id="Group_11743" data-name="Group 11743" transform="translate(0 0)">
          <g id="Group_11730" data-name="Group 11730" transform="translate(0 27.693)" opacity="0.18">
            <g id="Group_11729" data-name="Group 11729">
              <g id="Group_11728" data-name="Group 11728">
                <g id="Group_11727" data-name="Group 11727">
                  <path id="Path_4600" data-name="Path 4600" d="M519.7,475.166c21.669-28.181,35.917-66.6,34.033-102.539-1.953-37.288-16.753-71.31-11.867-109.832,2.794-22.026,10.468-43.429,10.857-65.629,1.838-104.9-167.967-189.123-231.56-88.559-4.359,6.894-7.905,14.473-13.791,20.12a33.322,33.322,0,0,1-28.093,8.677c-16.163-2.7-30.11-14.736-45.874-19.578a151,151,0,0,0-44.055-6.576,169.43,169.43,0,0,0-84.8,23.143c-51.09,29.7-82.82,85.515-72.567,145.051C38.046,314.676,58.891,345.6,82.2,372.7c44.589,51.842,99.992,94.007,160.67,125.533,49.027,25.473,103.45,44.4,158.556,40.407A163.6,163.6,0,0,0,519.7,475.166Z" transform="translate(-30.056 -63.451)" fill="#9fbfff"/>
                </g>
              </g>
            </g>
          </g>
          <g id="Group_11734" data-name="Group 11734" transform="translate(8.524 34.707)" opacity="0.47">
            <g id="Group_11733" data-name="Group 11733">
              <g id="Group_11732" data-name="Group 11732">
                <g id="Group_11731" data-name="Group 11731">
                  <path id="Path_4601" data-name="Path 4601" d="M550.3,367.808c4.7-32.785-1.312-70.479-19.281-98.79-18.643-29.37-46.217-50.213-59.872-83.712-7.808-19.155-11.368-40.037-21.208-58.233C403.449,41.1,227.105,50.41,221.491,161.117c-.384,7.589.2,15.362-1.989,22.637a31.038,31.038,0,0,1-18.832,19.893c-14.353,5.2-31.177,1.814-46.187,5.094a140.7,140.7,0,0,0-38.765,14.814,157.865,157.865,0,0,0-58.243,57.575c-27.878,47.476-28.1,107.289,7.453,150.92,21.04,25.82,52.1,41.383,83.423,52.718,59.9,21.679,124.155,30.559,187.824,28.391,51.444-1.752,104.272-11.284,147.169-39.732A152.412,152.412,0,0,0,550.3,367.808Z" transform="translate(-37.337 -69.442)" fill="#9fbfff"/>
                </g>
              </g>
            </g>
          </g>
          <g id="Group_11738" data-name="Group 11738" transform="translate(87.424 99.154)" opacity="0.47">
            <g id="Group_11737" data-name="Group 11737">
              <g id="Group_11736" data-name="Group 11736">
                <g id="Group_11735" data-name="Group 11735">
                  <path id="Path_4602" data-name="Path 4602" d="M510.507,360.51c3.715-25.934-1.037-55.752-15.252-78.147-14.746-23.233-36.56-39.722-47.361-66.222-6.177-15.153-8.994-31.67-16.778-46.065C394.34,102.065,254.843,109.431,250.4,197.007c-.3,6,.163,12.153-1.574,17.907a24.555,24.555,0,0,1-14.9,15.737c-11.353,4.115-24.663,1.434-36.537,4.03A111.3,111.3,0,0,0,166.729,246.4a124.864,124.864,0,0,0-46.072,45.545C98.6,329.5,98.427,376.816,126.552,411.33c16.644,20.425,41.217,32.736,65.992,41.7,47.386,17.149,98.214,24.174,148.578,22.458,40.695-1.385,82.484-8.926,116.419-31.43A120.562,120.562,0,0,0,510.507,360.51Z" transform="translate(-104.726 -124.487)" fill="#9fbfff"/>
                </g>
              </g>
            </g>
          </g>
          <g id="Group_11739" data-name="Group 11739" transform="translate(478.199 128.961)" opacity="0.31">
            <path id="Path_4603" data-name="Path 4603" d="M453.035,158.975a7.366,7.366,0,1,1-5.512-8.838A7.365,7.365,0,0,1,453.035,158.975Z" transform="translate(-438.493 -149.945)" fill="#9fbfff"/>
          </g>
          <g id="Group_11740" data-name="Group 11740" transform="translate(476.09)" opacity="0.31">
            <circle id="Ellipse_171" data-name="Ellipse 171" cx="13.937" cy="13.937" r="13.937" transform="matrix(0.656, -0.754, 0.754, 0.656, 0, 21.03)" fill="#9fbfff"/>
          </g>
          <g id="Group_11741" data-name="Group 11741" transform="translate(7.541 437.511)" opacity="0.31">
            <circle id="Ellipse_172" data-name="Ellipse 172" cx="22.884" cy="22.884" r="22.884" transform="translate(0 27.6) rotate(-37.088)" fill="#9fbfff"/>
          </g>
          <g id="Group_11742" data-name="Group 11742" transform="translate(31.921 185.791)" opacity="0.31">
            <path id="Path_4604" data-name="Path 4604" d="M66.9,203.939a4.813,4.813,0,1,1-4.129-5.41A4.813,4.813,0,0,1,66.9,203.939Z" transform="translate(-57.32 -198.485)" fill="#9fbfff"/>
          </g>
        </g>
      </g>
      <g id="Group_11758" data-name="Group 11758" transform="translate(67.941 213.082)">
        <g id="Group_11745" data-name="Group 11745" transform="translate(0 0.283)">
          <path id="Path_4605" data-name="Path 4605" d="M480.876,390.809,359.647,463.5a17.823,17.823,0,0,1-18.268.039L70.223,302.478A14.93,14.93,0,0,1,62.922,290l-.508-21.5,137.779-72.335L487.761,356.133v22.519A14.173,14.173,0,0,1,480.876,390.809Z" transform="translate(-62.414 -183.837)" fill="#1b1b25"/>
          <path id="Path_4606" data-name="Path 4606" d="M482.577,364.542,364.017,435.8a28.349,28.349,0,0,1-29.045.1L67.8,277.747a10.985,10.985,0,0,1,.115-18.973l122.516-70.54a19.5,19.5,0,0,1,19.5.026L482.43,346.129A10.691,10.691,0,0,1,482.577,364.542Z" transform="translate(-62.414 -185.634)" fill="#292930"/>
          <path id="Path_4607" data-name="Path 4607" d="M86.73,276.3,215.2,200.942,441.693,332,309.351,407.875Z" transform="translate(-58.261 -183.019)" fill="#fff"/>
          <path id="Path_4608" data-name="Path 4608" d="M356.3,365.046c-8.909,0-16.157-4.556-16.157-10.153s7.248-10.154,16.157-10.154,16.157,4.556,16.157,10.154S365.213,365.046,356.3,365.046Zm0-19.137c-8.262,0-14.986,4.031-14.986,8.984s6.724,8.982,14.986,8.982,14.986-4.029,14.986-8.982S364.567,345.909,356.3,345.909Z" transform="translate(-14.977 -158.459)" fill="#ccc"/>
          <path id="Path_4609" data-name="Path 4609" d="M365.416,390.543a2.353,2.353,0,0,1-1.116-.285,2.32,2.32,0,0,1-1.24-2.074v-4.218a2.767,2.767,0,0,1,1.3-2.354l22.711-14.256h0a1.942,1.942,0,0,1,2.973,1.55l.2,3.953a2.888,2.888,0,0,1-1.28,2.535l-22.25,14.752A2.338,2.338,0,0,1,365.416,390.543Zm22.28-22.195-22.712,14.257a1.6,1.6,0,0,0-.753,1.362v4.218a1.181,1.181,0,0,0,1.835.985l22.25-14.752a1.708,1.708,0,0,0,.759-1.5l-.2-3.953a.772.772,0,0,0-1.181-.615Z" transform="translate(-11.063 -154.646)" fill="#ccc"/>
          <path id="Path_4610" data-name="Path 4610" d="M110.317,241.788a.585.585,0,0,1-.287-1.1l41.835-23.451a.585.585,0,1,1,.573,1.021L110.6,241.713A.592.592,0,0,1,110.317,241.788Z" transform="translate(-54.332 -180.248)" fill="#ccc"/>
          <path id="Path_4611" data-name="Path 4611" d="M129.2,315.24a2.971,2.971,0,0,1-1.527-.426l-35.3-21.121A2.971,2.971,0,0,1,90.93,291h0a2.974,2.974,0,0,1,4.472-2.427l35.318,20.68a2.962,2.962,0,0,1,1.468,2.7l-.02.441a2.985,2.985,0,0,1-2.972,2.839ZM92.1,291.057a1.8,1.8,0,0,0,.876,1.631l35.3,21.121A1.8,1.8,0,0,0,131,312.346l.02-.441a1.8,1.8,0,0,0-.889-1.639l-35.318-20.68a1.8,1.8,0,0,0-2.713,1.472Z" transform="translate(-57.544 -168.122)" fill="#ccc"/>
          <path id="Path_4612" data-name="Path 4612" d="M169.143,337.261a2.977,2.977,0,0,1-1.483-.4L132.014,316.33a2.97,2.97,0,0,1-1.488-2.666h0a2.973,2.973,0,0,1,4.432-2.5l35.659,20.089a2.965,2.965,0,0,1,1.513,2.681l-.014.44a2.983,2.983,0,0,1-2.973,2.888ZM131.7,313.7a1.8,1.8,0,0,0,.9,1.616l35.645,20.532a1.8,1.8,0,0,0,2.7-1.509l.014-.441a1.8,1.8,0,0,0-.918-1.625l-35.658-20.087A1.8,1.8,0,0,0,131.7,313.7Z" transform="translate(-50.781 -164.259)" fill="#ccc"/>
        </g>
        <g id="Group_11751" data-name="Group 11751" transform="translate(56.426 33.96)" opacity="0.28">
          <g id="Group_11746" data-name="Group 11746" transform="translate(168.942 83.86)">
            <path id="Path_4613" data-name="Path 4613" d="M390.034,321.875l-16.992-9.089-30.351-17.24a5.223,5.223,0,0,0-5.173.009l-80.448,46.062a4.306,4.306,0,0,0-.027,7.458l23.23,13.53a8.813,8.813,0,0,0,8.933-.039l70.749-42.01Z" transform="translate(-254.904 -284.515)" fill="#9fbfff"/>
            <path id="Path_4614" data-name="Path 4614" d="M392.226,313.035l-16.992-9.089-30.351-17.241a5.223,5.223,0,0,0-5.173.009l-80.448,46.063a4.306,4.306,0,0,0-.027,7.458l23.23,13.529a8.81,8.81,0,0,0,8.933-.037l70.749-42.01Z" transform="translate(-254.53 -286.025)" fill="#4e69ff"/>
            <path id="Path_4615" data-name="Path 4615" d="M270.157,332.808a.586.586,0,0,1-.3-1.088l41.888-25.232a.585.585,0,0,1,.6,1l-41.887,25.233A.587.587,0,0,1,270.157,332.808Z" transform="translate(-252.399 -282.544)" fill="#fff"/>
            <path id="Path_4616" data-name="Path 4616" d="M276.485,337.659a.585.585,0,0,1-.3-1.088l50.319-30a.585.585,0,1,1,.6,1.006l-50.319,30A.579.579,0,0,1,276.485,337.659Z" transform="translate(-251.318 -282.53)" fill="#fff"/>
            <path id="Path_4617" data-name="Path 4617" d="M283.287,341.227a.586.586,0,0,1-.306-1.085L329.3,311.767a.585.585,0,0,1,.61,1l-46.312,28.376A.578.578,0,0,1,283.287,341.227Z" transform="translate(-250.157 -281.642)" fill="#fff"/>
            <path id="Path_4618" data-name="Path 4618" d="M334.63,310.067h-.1a13.578,13.578,0,0,1-8-2.5,7.638,7.638,0,0,1-3.379-6.14c.029-4.706,5.13-8.507,11.393-8.507h.091a13.568,13.568,0,0,1,8,2.5,7.191,7.191,0,0,1-.074,12.241A13.54,13.54,0,0,1,334.63,310.067Zm-.085-15.978c-5.62,0-10.2,3.282-10.221,7.343a6.5,6.5,0,0,0,2.908,5.195,12.4,12.4,0,0,0,7.309,2.269,12.551,12.551,0,0,0,7.336-2.182,6.03,6.03,0,0,0,.062-10.356,12.39,12.39,0,0,0-7.309-2.269Z" transform="translate(-243.248 -284.847)" fill="#fff"/>
          </g>
          <g id="Group_11748" data-name="Group 11748" transform="translate(65.063 23.977)">
            <path id="Path_4619" data-name="Path 4619" d="M301.309,270.728l-16.992-9.089L253.967,244.4a5.22,5.22,0,0,0-5.173.008L168.346,290.47a4.306,4.306,0,0,0-.028,7.458l23.23,13.529a8.81,8.81,0,0,0,8.933-.037l70.75-42.01Z" transform="translate(-166.179 -233.368)" fill="#9fbfff"/>
            <g id="Group_11747" data-name="Group 11747" transform="translate(2.566)">
              <path id="Path_4620" data-name="Path 4620" d="M250.986,235.568l-80.448,46.062a4.307,4.307,0,0,0-.028,7.459l23.23,13.529a8.813,8.813,0,0,0,8.933-.039L286.51,252.8l-30.352-17.24A5.22,5.22,0,0,0,250.986,235.568Z" transform="translate(-168.371 -234.878)" fill="#4e69ff"/>
              <path id="Path_4621" data-name="Path 4621" d="M288.175,259.273l-16.992-9.089-13.086,7.77Z" transform="translate(-153.046 -232.263)" fill="#4e69ff"/>
            </g>
            <path id="Path_4622" data-name="Path 4622" d="M181.434,281.661a.586.586,0,0,1-.3-1.088l41.887-25.233a.586.586,0,0,1,.6,1l-41.887,25.233A.591.591,0,0,1,181.434,281.661Z" transform="translate(-163.674 -231.397)" fill="#fff"/>
            <path id="Path_4623" data-name="Path 4623" d="M187.762,286.512a.586.586,0,0,1-.3-1.089l50.318-30a.586.586,0,0,1,.6,1.007l-50.318,30A.589.589,0,0,1,187.762,286.512Z" transform="translate(-162.593 -231.383)" fill="#fff"/>
            <path id="Path_4624" data-name="Path 4624" d="M194.563,290.081a.586.586,0,0,1-.307-1.085l46.312-28.377a.586.586,0,0,1,.612,1l-46.313,28.376A.581.581,0,0,1,194.563,290.081Z" transform="translate(-161.432 -230.496)" fill="#fff"/>
            <path id="Path_4625" data-name="Path 4625" d="M245.905,258.919h-.1a13.567,13.567,0,0,1-8-2.5,7.632,7.632,0,0,1-3.379-6.14c.028-4.728,5.14-8.584,11.483-8.507a13.569,13.569,0,0,1,8,2.5,7.638,7.638,0,0,1,3.379,6.141l-.585,0,.585,0a7.637,7.637,0,0,1-3.452,6.1A13.535,13.535,0,0,1,245.905,258.919Zm-.087-15.978c-5.62,0-10.2,3.282-10.22,7.343a6.5,6.5,0,0,0,2.908,5.194,12.381,12.381,0,0,0,7.309,2.27,12.528,12.528,0,0,0,7.336-2.181,6.032,6.032,0,0,0,.061-10.357,12.4,12.4,0,0,0-7.309-2.269Z" transform="translate(-154.522 -233.701)" fill="#fff"/>
          </g>
          <g id="Group_11749" data-name="Group 11749" transform="translate(99.75 64.039)">
            <path id="Path_4626" data-name="Path 4626" d="M309.788,292.581l-26.2-14.88a5.217,5.217,0,0,0-5.171.008l-80.448,46.063a4.306,4.306,0,0,0-.028,7.458l43.5,26.521-4.536-17.07h0l72.921-43.3A2.777,2.777,0,0,0,309.788,292.581Z" transform="translate(-195.806 -267.742)" fill="#9fbfff"/>
            <path id="Path_4627" data-name="Path 4627" d="M310.753,284.677l-26.231-14.9a5.223,5.223,0,0,0-5.173.009L198.9,315.849a4.306,4.306,0,0,0-.027,7.458l23.23,13.529a8.721,8.721,0,0,0,1.524.683l-.025.008,18.773,12.3-4.535-17.07,72.957-43.32A2.752,2.752,0,0,0,310.753,284.677Z" transform="translate(-195.648 -269.096)" fill="#ffb54a"/>
            <path id="Path_4628" data-name="Path 4628" d="M224.928,312a.585.585,0,0,1-.3-1.088l50.318-30a.585.585,0,1,1,.6,1.006l-50.318,30A.577.577,0,0,1,224.928,312Z" transform="translate(-190.933 -267.093)" fill="#fff"/>
            <path id="Path_4629" data-name="Path 4629" d="M231.728,315.563a.586.586,0,0,1-.307-1.085L277.735,286.1a.585.585,0,1,1,.611,1l-46.312,28.376A.6.6,0,0,1,231.728,315.563Z" transform="translate(-189.771 -266.205)" fill="#fff"/>
          </g>
          <g id="Group_11750" data-name="Group 11750">
            <path id="Path_4630" data-name="Path 4630" d="M224.589,237.884,198.395,223a5.22,5.22,0,0,0-5.173.008l-80.448,46.063a4.307,4.307,0,0,0-.027,7.458l43.5,26.521-4.536-17.07h0l72.921-43.3A2.776,2.776,0,0,0,224.589,237.884Z" transform="translate(-110.608 -213.045)" fill="#9fbfff"/>
            <path id="Path_4631" data-name="Path 4631" d="M225.555,229.98l-26.231-14.9a5.223,5.223,0,0,0-5.173.009L113.7,261.151a4.306,4.306,0,0,0-.028,7.458l23.23,13.529a8.77,8.77,0,0,0,1.526.683l-.025.008,18.773,12.3-4.535-17.071,72.956-43.32A2.752,2.752,0,0,0,225.555,229.98Z" transform="translate(-110.45 -214.399)" fill="#ffb54a"/>
            <path id="Path_4632" data-name="Path 4632" d="M139.73,257.3a.586.586,0,0,1-.3-1.089l50.318-30a.586.586,0,0,1,.6,1.007l-50.318,30A.592.592,0,0,1,139.73,257.3Z" transform="translate(-105.734 -212.396)" fill="#fff"/>
            <path id="Path_4633" data-name="Path 4633" d="M146.531,260.867a.586.586,0,0,1-.307-1.085l46.313-28.374a.585.585,0,1,1,.611,1l-46.312,28.376A.585.585,0,0,1,146.531,260.867Z" transform="translate(-104.573 -211.508)" fill="#fff"/>
          </g>
        </g>
        <g id="Group_11757" data-name="Group 11757" transform="translate(92.075)">
          <g id="Group_11752" data-name="Group 11752" transform="translate(168.943 83.86)">
            <path id="Path_4634" data-name="Path 4634" d="M420.483,292.869l-16.992-9.089-30.351-17.24a5.22,5.22,0,0,0-5.173.009L287.52,312.611a4.307,4.307,0,0,0-.027,7.459l23.23,13.529a8.813,8.813,0,0,0,8.933-.039l70.749-42.01Z" transform="translate(-285.353 -255.509)" fill="#9fbfff"/>
            <path id="Path_4635" data-name="Path 4635" d="M422.675,284.029l-16.992-9.089L375.333,257.7a5.219,5.219,0,0,0-5.173.008l-80.448,46.063a4.306,4.306,0,0,0-.027,7.458l23.23,13.529a8.811,8.811,0,0,0,8.933-.038l70.749-42.01Z" transform="translate(-284.979 -257.019)" fill="#4e69ff"/>
            <path id="Path_4636" data-name="Path 4636" d="M300.606,303.8a.585.585,0,0,1-.3-1.086l41.886-25.233a.586.586,0,1,1,.6,1l-41.887,25.233A.588.588,0,0,1,300.606,303.8Z" transform="translate(-282.848 -253.538)" fill="#fff"/>
            <path id="Path_4637" data-name="Path 4637" d="M306.936,308.653a.585.585,0,0,1-.3-1.088l50.316-30a.585.585,0,1,1,.6,1.006l-50.318,30A.577.577,0,0,1,306.936,308.653Z" transform="translate(-281.767 -253.524)" fill="#fff"/>
            <path id="Path_4638" data-name="Path 4638" d="M313.735,312.221a.586.586,0,0,1-.3-1.085l46.312-28.376a.586.586,0,0,1,.611,1l-46.313,28.376A.577.577,0,0,1,313.735,312.221Z" transform="translate(-280.606 -252.637)" fill="#fff"/>
            <path id="Path_4639" data-name="Path 4639" d="M365.076,281.061h-.092a13.577,13.577,0,0,1-8-2.5,7.639,7.639,0,0,1-3.379-6.14c.029-4.705,5.13-8.507,11.392-8.507h.091a13.567,13.567,0,0,1,8,2.5,7.191,7.191,0,0,1-.071,12.24A13.552,13.552,0,0,1,365.076,281.061Zm-.083-15.978c-5.619,0-10.2,3.282-10.22,7.343a6.506,6.506,0,0,0,2.908,5.195,12.4,12.4,0,0,0,7.309,2.269h.087a12.365,12.365,0,0,0,7.25-2.184,6.5,6.5,0,0,0,2.969-5.159h0a6.5,6.5,0,0,0-2.908-5.195,12.38,12.38,0,0,0-7.309-2.27Z" transform="translate(-273.696 -255.841)" fill="#fff"/>
          </g>
          <g id="Group_11754" data-name="Group 11754" transform="translate(65.064 23.976)">
            <path id="Path_4640" data-name="Path 4640" d="M331.757,241.722l-16.992-9.089-30.351-17.241a5.22,5.22,0,0,0-5.171.009L198.8,261.465a4.306,4.306,0,0,0-.028,7.458L222,282.451a8.81,8.81,0,0,0,8.933-.037L301.68,240.4Z" transform="translate(-196.628 -204.361)" fill="#9fbfff"/>
            <g id="Group_11753" data-name="Group 11753" transform="translate(2.566)">
              <path id="Path_4641" data-name="Path 4641" d="M281.435,206.562l-80.448,46.063a4.306,4.306,0,0,0-.028,7.458l23.23,13.529a8.813,8.813,0,0,0,8.933-.039l83.835-49.78-30.351-17.24A5.217,5.217,0,0,0,281.435,206.562Z" transform="translate(-198.82 -205.871)" fill="#4e69ff"/>
              <path id="Path_4642" data-name="Path 4642" d="M318.624,230.267l-16.992-9.089-13.086,7.77Z" transform="translate(-183.495 -203.257)" fill="#4e69ff"/>
            </g>
            <path id="Path_4643" data-name="Path 4643" d="M211.881,252.655a.586.586,0,0,1-.3-1.088l41.887-25.233a.586.586,0,0,1,.6,1l-41.887,25.233A.581.581,0,0,1,211.881,252.655Z" transform="translate(-194.123 -202.391)" fill="#fff"/>
            <path id="Path_4644" data-name="Path 4644" d="M218.209,257.506a.586.586,0,0,1-.3-1.089l50.318-30a.586.586,0,0,1,.6,1.007l-50.316,30A.593.593,0,0,1,218.209,257.506Z" transform="translate(-193.042 -202.377)" fill="#fff"/>
            <path id="Path_4645" data-name="Path 4645" d="M225.012,261.074a.586.586,0,0,1-.307-1.085l46.313-28.374a.585.585,0,1,1,.61,1l-46.312,28.376A.578.578,0,0,1,225.012,261.074Z" transform="translate(-191.881 -201.489)" fill="#fff"/>
            <path id="Path_4646" data-name="Path 4646" d="M276.352,229.913h-.094a13.562,13.562,0,0,1-8-2.5,7.191,7.191,0,0,1,.073-12.24,14.326,14.326,0,0,1,16.034.095,7.192,7.192,0,0,1-.073,12.241A13.539,13.539,0,0,1,276.352,229.913Zm-.088-15.977a12.364,12.364,0,0,0-7.247,2.181,6.032,6.032,0,0,0-.062,10.356,12.393,12.393,0,0,0,7.309,2.269h.089a12.352,12.352,0,0,0,7.248-2.182,6.031,6.031,0,0,0,.062-10.355,12.394,12.394,0,0,0-7.31-2.269Z" transform="translate(-184.971 -204.694)" fill="#fff"/>
          </g>
          <g id="Group_11755" data-name="Group 11755" transform="translate(99.751 64.039)">
            <path id="Path_4647" data-name="Path 4647" d="M340.237,263.575l-26.2-14.88a5.22,5.22,0,0,0-5.173.008l-80.448,46.063a4.307,4.307,0,0,0-.027,7.458l43.5,26.521-4.536-17.07h0l72.921-43.3A2.777,2.777,0,0,0,340.237,263.575Z" transform="translate(-226.255 -238.736)" fill="#9fbfff"/>
            <path id="Path_4648" data-name="Path 4648" d="M341.2,255.671l-26.231-14.9a5.223,5.223,0,0,0-5.173.009l-80.448,46.063a4.306,4.306,0,0,0-.027,7.458l23.23,13.529a8.724,8.724,0,0,0,1.524.683l-.025.008,18.773,12.3-4.535-17.07,72.956-43.32A2.752,2.752,0,0,0,341.2,255.671Z" transform="translate(-226.096 -240.09)" fill="#ffb54a"/>
            <path id="Path_4649" data-name="Path 4649" d="M255.375,282.989a.585.585,0,0,1-.3-1.088l50.319-30a.585.585,0,0,1,.6,1.006l-50.318,30A.578.578,0,0,1,255.375,282.989Z" transform="translate(-221.381 -238.087)" fill="#fff"/>
            <path id="Path_4650" data-name="Path 4650" d="M262.178,286.557a.586.586,0,0,1-.306-1.085L308.185,257.1a.586.586,0,0,1,.61,1l-46.313,28.374A.574.574,0,0,1,262.178,286.557Z" transform="translate(-220.22 -237.199)" fill="#fff"/>
          </g>
          <g id="Group_11756" data-name="Group 11756">
            <path id="Path_4651" data-name="Path 4651" d="M255.038,208.878,228.844,194a5.217,5.217,0,0,0-5.173.009l-80.448,46.062a4.306,4.306,0,0,0-.027,7.458l43.5,26.521-4.535-17.07h0l72.921-43.3A2.776,2.776,0,0,0,255.038,208.878Z" transform="translate(-141.056 -184.039)" fill="#9fbfff"/>
            <path id="Path_4652" data-name="Path 4652" d="M256,200.974l-26.232-14.9a5.22,5.22,0,0,0-5.171.009l-80.448,46.063a4.306,4.306,0,0,0-.028,7.458l23.23,13.529a8.733,8.733,0,0,0,1.526.683l-.025.008,18.773,12.3-4.536-17.07,72.957-43.32A2.752,2.752,0,0,0,256,200.974Z" transform="translate(-140.898 -185.393)" fill="#ffb54a"/>
            <path id="Path_4653" data-name="Path 4653" d="M170.177,228.293a.586.586,0,0,1-.3-1.089l50.318-30a.585.585,0,0,1,.6,1.006l-50.318,30A.593.593,0,0,1,170.177,228.293Z" transform="translate(-136.183 -183.39)" fill="#fff"/>
            <path id="Path_4654" data-name="Path 4654" d="M176.98,231.86a.585.585,0,0,1-.307-1.084L222.985,202.4a.586.586,0,1,1,.612,1l-46.313,28.376A.591.591,0,0,1,176.98,231.86Z" transform="translate(-135.021 -182.502)" fill="#fff"/>
          </g>
        </g>
      </g>
      <g id="Group_11793" data-name="Group 11793" transform="translate(106.413 90.381)">
        <g id="Group_11786" data-name="Group 11786" transform="translate(44.977)" opacity="0.43">
          <g id="Group_11779" data-name="Group 11779">
            <g id="Group_11775" data-name="Group 11775">
              <g id="Group_11774" data-name="Group 11774">
                <g id="Group_11772" data-name="Group 11772">
                  <path id="Path_4674" data-name="Path 4674" d="M161.211,152.878l-7,.057A31.8,31.8,0,0,1,122.147,121.4l-.294-35.5A31.8,31.8,0,0,1,153.389,53.84l66.511-.55a32.9,32.9,0,0,0-5.414-.409l-68.855.571a32.781,32.781,0,0,0-32.51,33.053l.3,36.595c.15,18.1,14.948,35.042,33.053,34.892l8.409-.06,26.968,25.308,25.282-25.816h0l-20.309,20.649Z" transform="translate(-112.535 -52.294)" fill="#fff"/>
                  <path id="Path_4675" data-name="Path 4675" d="M181.957,184.146l-27.215-25.54-8.175.057h-.234c-17.669,0-33.252-16.514-33.41-35.474l-.3-36.595a33.367,33.367,0,0,1,33.09-33.643l68.855-.571a33.69,33.69,0,0,1,5.51.414l-.087,1.165-66.511.55a31.214,31.214,0,0,0-30.955,31.472l.294,35.5a31.252,31.252,0,0,0,31.21,30.956h.262l7.244-.06,25.372,24.955,19.9-20.231.836.821ZM155.2,157.431l26.72,25.075,4.208-4.3L161.058,153.55l-6.758.056h-.273a32.422,32.422,0,0,1-32.381-32.117l-.294-35.5a32.415,32.415,0,0,1,25.286-31.877l-.918.008a32.2,32.2,0,0,0-31.929,32.463l.3,36.595c.152,18.338,15.19,34.313,32.239,34.313h.225Z" transform="translate(-112.62 -52.38)" fill="#9fbfff"/>
                </g>
                <g id="Group_11773" data-name="Group 11773" transform="translate(8.732 0.406)">
                  <path id="Path_4676" data-name="Path 4676" d="M250.968,84.764A31.8,31.8,0,0,0,218.9,53.227l-.279,0-66.511.55a31.8,31.8,0,0,0-31.536,32.064l.294,35.5a31.8,31.8,0,0,0,32.062,31.536l7-.057,25.617,25.2,20.309-20.649,4.886-4.968,8.978-.074a31.8,31.8,0,0,0,31.536-32.064Z" transform="translate(-119.993 -52.642)" fill="#fff"/>
                  <path id="Path_4677" data-name="Path 4677" d="M185.646,178.928l-25.862-25.437-6.758.056h-.273a32.422,32.422,0,0,1-32.381-32.117l-.294-35.5A32.386,32.386,0,0,1,152.2,53.281l66.791-.554a32.388,32.388,0,0,1,32.652,32.117l.294,35.5a32.424,32.424,0,0,1-32.116,32.654l-8.734.071ZM160.26,152.317l25.372,24.954L210.587,151.9l9.22-.076a31.251,31.251,0,0,0,30.955-31.474l-.294-35.5A31.217,31.217,0,0,0,218.994,53.9l-66.79.554A31.215,31.215,0,0,0,121.25,85.925l.294,35.5a31.252,31.252,0,0,0,31.21,30.956h.262Z" transform="translate(-120.078 -52.727)" fill="#9fbfff"/>
                </g>
              </g>
            </g>
            <g id="Group_11776" data-name="Group 11776" transform="translate(33.769 44.198)">
              <path id="Path_4678" data-name="Path 4678" d="M157.848,102.385a8.315,8.315,0,1,1-4.129-11.01A8.316,8.316,0,0,1,157.848,102.385Z" transform="translate(-141.378 -90.045)" fill="#fff"/>
              <path id="Path_4679" data-name="Path 4679" d="M150.349,107.93a8.9,8.9,0,1,1,8.116-5.217A8.853,8.853,0,0,1,150.349,107.93Zm.025-16.629a7.73,7.73,0,1,0,3.186.692A7.739,7.739,0,0,0,150.374,91.3Z" transform="translate(-141.463 -90.13)" fill="#9fbfff"/>
            </g>
            <g id="Group_11777" data-name="Group 11777" transform="translate(64.348 42.053)">
              <circle id="Ellipse_173" data-name="Ellipse 173" cx="8.315" cy="8.315" r="8.315" transform="translate(0 16.099) rotate(-75.48)" fill="#fff"/>
              <path id="Path_4680" data-name="Path 4680" d="M177.531,107.158a8.921,8.921,0,1,1,3.13-.571A8.882,8.882,0,0,1,177.531,107.158Zm.015-16.635a7.73,7.73,0,1,0,7.026,10.927h0a7.728,7.728,0,0,0-7.026-10.927Z" transform="translate(-167.401 -88.119)" fill="#9fbfff"/>
            </g>
            <g id="Group_11778" data-name="Group 11778" transform="translate(96.624 42.399)">
              <path id="Path_4681" data-name="Path 4681" d="M211.538,100.848a8.315,8.315,0,1,1-4.131-11.01A8.316,8.316,0,0,1,211.538,100.848Z" transform="translate(-195.062 -88.508)" fill="#fff"/>
              <path id="Path_4682" data-name="Path 4682" d="M204.04,106.393a8.9,8.9,0,1,1,8.116-5.217h0A8.913,8.913,0,0,1,204.04,106.393Zm.026-16.629a7.73,7.73,0,1,0,7.025,10.927h0a7.729,7.729,0,0,0-7.025-10.927Zm7.558,11.169h0Z" transform="translate(-195.148 -88.593)" fill="#9fbfff"/>
            </g>
          </g>
        </g>
        <g id="Group_11792" data-name="Group 11792" transform="translate(0 24.256)">
          <g id="Group_11788" data-name="Group 11788">
            <g id="Group_11787" data-name="Group 11787">
              <path id="Path_4689" data-name="Path 4689" d="M122.3,173.094l-7,.059a31.8,31.8,0,0,1-32.064-31.536l-.294-35.5a31.8,31.8,0,0,1,31.536-32.062l66.512-.551a32.917,32.917,0,0,0-5.415-.407l-68.854.57a32.784,32.784,0,0,0-32.511,33.054l.3,36.593c.15,18.105,14.949,35.043,33.054,34.893l8.409-.06,26.968,25.308,25.282-25.816h0l-20.31,20.648Z" transform="translate(-74.204 -73.097)" fill="#3a5ce8"/>
              <path id="Path_4690" data-name="Path 4690" d="M212.052,104.98a31.8,31.8,0,0,0-32.062-31.536l-.279,0L113.2,74A31.8,31.8,0,0,0,81.663,106.06l.294,35.5a31.8,31.8,0,0,0,32.064,31.536l7-.059,25.616,25.2,20.31-20.648,4.886-4.968,8.977-.075a31.8,31.8,0,0,0,31.537-32.062Z" transform="translate(-72.93 -73.038)" fill="#4e69ff"/>
            </g>
            <path id="Path_4691" data-name="Path 4691" d="M111.443,128.152a8.921,8.921,0,1,1,3.131-.571A8.877,8.877,0,0,1,111.443,128.152Zm.008-16.638a7.732,7.732,0,1,0,7.034,10.931h0a7.738,7.738,0,0,0-7.034-10.931Z" transform="translate(-69.363 -66.736)" fill="#fff"/>
            <path id="Path_4692" data-name="Path 4692" d="M138.606,127.369a8.9,8.9,0,1,1,8.116-5.217h0A8.913,8.913,0,0,1,138.606,127.369Zm.016-16.634a7.739,7.739,0,1,0,3.194.7A7.734,7.734,0,0,0,138.623,110.736Z" transform="translate(-64.722 -66.868)" fill="#fff"/>
            <path id="Path_4693" data-name="Path 4693" d="M165.133,126.616a8.928,8.928,0,1,1,3.13-.573A8.865,8.865,0,0,1,165.133,126.616Zm.008-16.639a7.732,7.732,0,1,0,7.033,10.932h0a7.738,7.738,0,0,0-7.033-10.932Z" transform="translate(-60.193 -66.998)" fill="#fff"/>
          </g>
        </g>
      </g>
    </g>
  </g>
</svg>
