<svg xmlns="http://www.w3.org/2000/svg" width="69.015" height="57.327" viewBox="0 0 69.015 57.327">
  <g id="manage_digital" transform="translate(2.853 -44)">
    <g id="Group_11766" data-name="Group 11766" transform="translate(-2.853 44)" opacity="0.5">
      <g id="Group_11765" data-name="Group 11765">
        <g id="Group_11761" data-name="Group 11761">
          <g id="Group_11759" data-name="Group 11759">
            <path id="Path_4655" data-name="Path 4655" d="M336.035,152.288l-2.286.019a10.387,10.387,0,0,1-10.472-10.3l-.1-11.593a10.385,10.385,0,0,1,10.3-10.472l21.657-.18a10.882,10.882,0,0,0-1.7-.134l-22.488.186a10.708,10.708,0,0,0-10.618,10.8l.1,11.952c.049,5.913,4.882,11.445,10.8,11.4l2.746-.019,8.808,8.265,8.257-8.432h0l-6.633,6.744Z" transform="translate(-319.971 -119.271)" fill="#0079de"/>
            <path id="Path_4656" data-name="Path 4656" d="M342.645,162.561l-8.958-8.407-2.6.019a10.606,10.606,0,0,1-7.862-3.577,12.374,12.374,0,0,1-3.293-8.173l-.1-11.952A11.064,11.064,0,0,1,330.8,119.315l22.488-.186a10.673,10.673,0,0,1,1.759.138l-.051.71-21.656.18a10.04,10.04,0,0,0-9.945,10.112l.1,11.593a10.04,10.04,0,0,0,10.027,9.946h.084l2.434-.021,8.217,8.082,6.383-6.489.51.5h0Zm-8.677-9.124,8.657,8.125,1.145-1.169-8.022-7.89-2.138.018h-.09a10.755,10.755,0,0,1-10.742-10.654l-.1-11.593a10.763,10.763,0,0,1,7.059-10.182,10.352,10.352,0,0,0-9.2,10.373l.1,11.951a11.651,11.651,0,0,0,3.1,7.694A9.867,9.867,0,0,0,331,153.458h.076Z" transform="translate(-319.828 -119.127)" fill="#707070"/>
          </g>
          <g id="Group_11760" data-name="Group 11760" transform="translate(2.852 0.133)">
            <path id="Path_4657" data-name="Path 4657" d="M366.907,130.114a10.385,10.385,0,0,0-10.472-10.3h-.157l-21.657.18a10.385,10.385,0,0,0-10.3,10.472l.1,11.593a10.387,10.387,0,0,0,10.472,10.3l2.286-.019,8.367,8.229,6.633-6.744,1.6-1.622,2.932-.024A10.387,10.387,0,0,0,367,141.708Z" transform="translate(-323.964 -119.457)" fill="#0093f7"/>
            <path id="Path_4658" data-name="Path 4658" d="M345.4,160.932l-8.516-8.376-2.138.018h-.09a10.755,10.755,0,0,1-10.742-10.654l-.1-11.593A10.755,10.755,0,0,1,334.476,119.5l21.813-.181h.091a10.743,10.743,0,0,1,10.741,10.654l.1,11.593a10.757,10.757,0,0,1-10.654,10.832l-2.784.023Zm-8.226-9.093,8.217,8.082,8.082-8.217,3.08-.026a10.041,10.041,0,0,0,9.945-10.112l-.1-11.593a10.028,10.028,0,0,0-10.027-9.946h-.085l-21.814.181a10.04,10.04,0,0,0-9.945,10.112l.1,11.593a10.04,10.04,0,0,0,10.027,9.946h.084Z" transform="translate(-323.821 -119.314)" fill="#fff"/>
          </g>
        </g>
        <g id="Group_11762" data-name="Group 11762" transform="translate(11.03 14.434)">
          <path id="Path_4659" data-name="Path 4659" d="M340.958,143.678a2.716,2.716,0,1,1-1.349-3.6A2.716,2.716,0,0,1,340.958,143.678Z" transform="translate(-335.413 -139.48)" fill="#9fbfff"/>
          <path id="Path_4660" data-name="Path 4660" d="M338.338,145.484a3.073,3.073,0,1,1,2.8-1.8h0A3.078,3.078,0,0,1,338.338,145.484Zm.006-5.433a2.359,2.359,0,1,0,2.146,3.336h0a2.361,2.361,0,0,0-2.146-3.336Zm2.471,3.483h0Z" transform="translate(-335.271 -139.336)" fill="#fff"/>
        </g>
        <g id="Group_11763" data-name="Group 11763" transform="translate(21.418 14.137)">
          <path id="Path_4661" data-name="Path 4661" d="M355.505,143.261a2.716,2.716,0,1,1-1.349-3.6A2.716,2.716,0,0,1,355.505,143.261Z" transform="translate(-349.958 -139.063)" fill="#9fbfff"/>
          <path id="Path_4662" data-name="Path 4662" d="M352.885,145.067a3.072,3.072,0,1,1,2.8-1.8A3.048,3.048,0,0,1,352.885,145.067Zm.006-5.433a2.366,2.366,0,1,0,.974.213A2.352,2.352,0,0,0,352.891,139.634Z" transform="translate(-349.815 -138.92)" fill="#fff"/>
        </g>
        <g id="Group_11764" data-name="Group 11764" transform="translate(31.557 13.848)">
          <path id="Path_4663" data-name="Path 4663" d="M369.7,142.855a2.716,2.716,0,1,1-1.349-3.6A2.717,2.717,0,0,1,369.7,142.855Z" transform="translate(-364.155 -138.659)" fill="#9fbfff"/>
          <path id="Path_4664" data-name="Path 4664" d="M367.085,144.664a3.075,3.075,0,1,1,2.8-1.8h0a3.082,3.082,0,0,1-2.8,1.8Zm.005-5.433a2.361,2.361,0,0,0-2.151,1.383,2.358,2.358,0,1,0,4.294,1.952h0a2.357,2.357,0,0,0-2.143-3.334Z" transform="translate(-364.011 -138.516)" fill="#fff"/>
        </g>
      </g>
    </g>
    <g id="Group_11770" data-name="Group 11770" transform="translate(20.628 58.751)">
      <g id="Group_11769" data-name="Group 11769">
        <path id="Path_4668" data-name="Path 4668" d="M336.035,213.473l-2.286.019a10.386,10.386,0,0,1-10.472-10.3l-.1-11.593a10.385,10.385,0,0,1,10.3-10.472l21.656-.18a10.78,10.78,0,0,0-1.7-.134L330.947,181a10.708,10.708,0,0,0-10.618,10.8l.1,11.952c.049,5.913,4.882,11.445,10.8,11.4l2.746-.019,8.808,8.265,8.257-8.432h0L344.4,221.7Z" transform="translate(-320.328 -180.814)" fill="#0093f7"/>
        <path id="Path_4669" data-name="Path 4669" d="M366.907,191.3A10.385,10.385,0,0,0,356.435,181h-.158l-21.656.18a10.385,10.385,0,0,0-10.3,10.472l.1,11.593a10.386,10.386,0,0,0,10.472,10.3l2.286-.019,8.367,8.229,6.633-6.744,1.6-1.622,2.932-.024A10.387,10.387,0,0,0,367,202.892Z" transform="translate(-321.47 -180.867)" fill="#0079de"/>
      </g>
      <path id="Path_4670" data-name="Path 4670" d="M363.62,196.72h-29.41a.357.357,0,1,1,0-.714h29.41a.357.357,0,1,1,0,.714Z" transform="translate(-324.193 -185.155)" fill="#fff"/>
      <path id="Path_4671" data-name="Path 4671" d="M363.62,212.426h-29.41a.357.357,0,0,1,0-.714h29.41a.357.357,0,1,1,0,.714Z" transform="translate(-324.193 -189.643)" fill="#fff"/>
      <path id="Path_4672" data-name="Path 4672" d="M348.385,204.661H334.209a.357.357,0,0,1,0-.714h14.176a.357.357,0,0,1,0,.714Z" transform="translate(-324.193 -187.424)" fill="#fff"/>
      <path id="Path_4673" data-name="Path 4673" d="M370.814,204.661H359.386a.357.357,0,1,1,0-.714h11.428a.357.357,0,0,1,0,.714Z" transform="translate(-331.387 -187.424)" fill="#fff"/>
    </g>
  </g>
</svg>
