<svg id="segment" xmlns="http://www.w3.org/2000/svg" width="59.054" height="59.054" viewBox="0 0 59.054 59.054">
  <g id="Group_11100" data-name="Group 11100" transform="translate(6.89 8.858)">
    <path id="Path_3186" data-name="Path 3186" d="M67.811,160H65.842l.984,7.874-1.968,1.968-1.968-1.968L63.874,160H61.905A5.906,5.906,0,0,0,56,165.905v7.874H71.818l1.9-1.1v-6.779A5.906,5.906,0,0,0,67.811,160Zm0,0" transform="translate(-56 -149.173)" fill="#0079de"/>
    <path id="Path_3187" data-name="Path 3187" d="M293.444,177.809a7.9,7.9,0,0,0-1.644-1.25l-3.927,3.868-3.927-3.868A7.848,7.848,0,0,0,280,183.38v3.829l1.892,1.092h13.856V183.38a7.889,7.889,0,0,0-2.3-5.571Zm0,0" transform="translate(-252.441 -163.695)" fill="#0079de"/>
    <path id="Path_3188" data-name="Path 3188" d="M179.811,368h-1.968l.984,7.874-1.968,1.968-1.968-1.968.984-7.874h-1.968A5.906,5.906,0,0,0,168,373.905v5.481a28.557,28.557,0,0,0,17.716,0v-5.481A5.906,5.906,0,0,0,179.811,368Zm0,0" transform="translate(-154.221 -331.584)" fill="#0079de"/>
    <path id="Path_3189" data-name="Path 3189" d="M301.905,72A5.906,5.906,0,0,0,296,77.905v4.921h3.719a2.932,2.932,0,0,1-.767-1.968V76.921h5.905v3.937a2.932,2.932,0,0,1-.767,1.968h3.719V77.905A5.914,5.914,0,0,0,301.905,72Zm0,0" transform="translate(-266.473 -72)" fill="#0079de"/>
    <path id="Path_3190" data-name="Path 3190" d="M215.874,291.937A3.937,3.937,0,1,1,211.937,288,3.937,3.937,0,0,1,215.874,291.937Zm0,0" transform="translate(-189.3 -261.426)" fill="#0079de"/>
    <path id="Path_3191" data-name="Path 3191" d="M113.6,72.955l.239-.955H104v3.937h5.784A3.937,3.937,0,0,0,113.6,72.955Zm0,0" transform="translate(-98.095 -72)" fill="#0079de"/>
  </g>
  <path id="Path_3192" data-name="Path 3192" d="M29.527,0A29.527,29.527,0,1,0,59.054,29.527,29.527,29.527,0,0,0,29.527,0ZM57.085,29.527a27.386,27.386,0,0,1-3.223,12.916L40.018,34.448H51.18V28.543a8.8,8.8,0,0,0-4.441-7.677l-.348-.2h2.821V14.763a6.89,6.89,0,1,0-13.779,0v5.905h2.819l-.347.2a8.877,8.877,0,0,0-4.44,7.677v2.121l-2.953-1.706V1.993A27.588,27.588,0,0,1,57.085,29.527Zm-18.7-16.732v4.921a3.872,3.872,0,0,0,.14.984H37.4V14.763a4.921,4.921,0,0,1,9.842,0V18.7H46.119a3.872,3.872,0,0,0,.14-.984V12.795Zm5.905,1.968v2.953a1.968,1.968,0,1,1-3.937,0V14.763Zm-4.545,5.905a3.865,3.865,0,0,0,5.154,0h1.017l-3.594,3.543-3.594-3.543Zm2.577,6.3,4.058-4a6.64,6.64,0,0,1,.815.689,6.882,6.882,0,0,1,2.017,4.882V32.48H47.243V28.543H45.275V32.48H39.369V28.543H37.4V32.48h-.787L35.432,31.8V28.543a6.9,6.9,0,0,1,2.834-5.565ZM11.811,8.44v6.323a3.937,3.937,0,1,0,7.874,0V13.638a4.9,4.9,0,0,0,3.669-3.587L23.9,7.874H12.51A27.406,27.406,0,0,1,28.543,1.993V28.961L25.59,30.667V25.59A6.9,6.9,0,0,0,18.7,18.7H12.8a6.9,6.9,0,0,0-6.89,6.89v8.858H19.034L5.191,42.441a27.5,27.5,0,0,1,6.62-34Zm6.768,3.371h-4.8V9.842h7.579a2.947,2.947,0,0,1-2.779,1.968Zm-4.8,1.968h3.937v.984a1.968,1.968,0,1,1-3.937,0Zm8.661,18.7h-.787V25.59H19.685v6.89H11.811V25.59H9.842v6.89H7.874V25.59a4.927,4.927,0,0,1,4.921-4.921h.854l-.906,7.245,3.005,3.005,3.005-3.005-.906-7.245H18.7a4.927,4.927,0,0,1,4.921,4.921V31.8ZM15.863,20.669,16.68,27.2l-.932.932-.932-.932.817-6.534ZM25.59,56.8V51.18H23.621v5.262q-1-.218-1.968-.509V51.18a4.927,4.927,0,0,1,4.921-4.921h.854L26.522,53.5l3.005,3.005L32.532,53.5l-.906-7.245h.854A4.927,4.927,0,0,1,37.4,51.18v4.753q-.97.295-1.968.509V51.18H33.464V56.8a27.29,27.29,0,0,1-7.874,0Zm4.052-10.541.817,6.534-.932.932-.932-.932.817-6.534Zm9.727,9V51.18a6.9,6.9,0,0,0-6.89-6.89H26.574a6.9,6.9,0,0,0-6.89,6.89v4.082A27.707,27.707,0,0,1,6.18,44.143L29.527,30.663,52.873,44.148a27.7,27.7,0,0,1-13.5,11.114Zm0,0" fill="#0079de"/>
  <path id="Path_3193" data-name="Path 3193" d="M209.842,284.921a4.921,4.921,0,1,0-4.921,4.921A4.921,4.921,0,0,0,209.842,284.921Zm-4.921,2.953a2.953,2.953,0,1,1,2.953-2.953A2.953,2.953,0,0,1,204.921,287.874Zm0,0" transform="translate(-175.394 -245.552)" fill="#0079de"/>
</svg>
